<svg id="Capa_1" enable-background="new 0 0 512 512"  viewBox="0 0 512 512" width="35" height="70" xmlns="http://www.w3.org/2000/svg"><g><path d="m198.7 182.633h18.2v18.199h-18.2z"/><path d="m295.1 279.033h18.201v18.199h-18.201z"/>
<path d="m222.801 367.4h18.199v112.467h-18.199z"/><path d="m271 367.4h18.2v112.467h-18.2z"/><path d="m198.7 279.033h18.2v18.199h-18.2z"/><path d="m400.6 112.467h-289.2c-8.284 0-15 6.716-15 15v337.4c0 8.284 6.716 15 15 15h81.4v-127.467c0-8.284 6.716-15 15-15h96.4c8.284 0 15 6.716 15 15v127.467h81.4c8.284 0 15-6.716 15-15v-337.4c0-8.284-6.716-15-15-15zm-153.7 199.765c0 8.284-6.716 15-15 15h-48.2c-8.284 0-15-6.716-15-15v-48.199c0-8.284 6.716-15 15-15h48.2c8.284 0 15 6.716 15 15zm0-96.4c0 8.284-6.716 15-15 15h-48.2c-8.284 0-15-6.716-15-15v-48.199c0-8.284 6.716-15 15-15h48.2c8.284 0 15 6.716 15 15zm96.401 96.4c0 8.284-6.716 15-15 15h-48.201c-8.284 0-15-6.716-15-15v-48.199c0-8.284 6.716-15 15-15h48.201c8.284 0 15 6.716 15 15zm0-96.4c0 8.284-6.716 15-15 15h-48.201c-8.284 0-15-6.716-15-15v-48.199c0-8.284 6.716-15 15-15h48.201c8.284 0 15 6.716 15 15z"/><path d="m295.1 182.633h18.201v18.199h-18.201z"/><path d="m399.533 63.199c0-17.13-13.936-31.066-31.066-31.066h-224.934c-17.13 0-31.066 13.937-31.066 31.066v19.268h287.066z"/><path d="m456.834 224.934h-11.234v239.934c0 5.258-.915 10.305-2.58 15h53.98c8.284 0 15-6.716 15-15v-184.768c0-30.419-24.747-55.166-55.166-55.166z"/><path d="m66.4 224.934h-11.233c-30.419 0-55.167 24.747-55.167 55.166v184.768c0 8.284 6.715
 15 15 15h53.98c-1.665-4.695-2.58-9.742-2.58-15z"/></g></svg>